<?xml version="1.0" encoding="UTF-8"?><svg id="Layer_2" xmlns="http://www.w3.org/2000/svg" viewBox="0 0 295.71 44.16"><defs><style>.cls-1{fill:#fff;}</style></defs><g id="Layer_1-2"><g><path class="cls-1" d="M74.78,15.88c-.56-1.24-1.93-1.94-3.32-1.58-.86,.22-1.54,.89-1.91,1.71l-10.35,23c-.63,1.4-.15,3.13,1.22,3.83,1.46,.75,3.22,.12,3.88-1.36l.75-1.67c.17-.37,.54-.61,.95-.61h12.38c.41,0,.78,.24,.95,.61l.75,1.67c.47,1.05,1.51,1.67,2.59,1.67,.51,0,1.03-.14,1.51-.44,1.22-.76,1.61-2.37,1.02-3.68l-10.42-23.16Zm-6.24,16.19l2.7-6.01c.37-.82,1.53-.82,1.9,0l2.7,6.01c.31,.69-.19,1.47-.95,1.47h-5.41c-.76,0-1.26-.78-.95-1.47Z"/><path class="cls-1" d="M106.45,14.49c-1.38-.67-3.05-.01-3.79,1.33l-6,10.95c-.4,.72-1.43,.72-1.83,0l-6-10.95c-.74-1.35-2.41-2-3.79-1.33-1.47,.71-2.04,2.5-1.26,3.92l8.83,16.1c.2,.36,.3,.77,.3,1.18v4.49c0,1.53,1.15,2.91,2.68,2.99,1.63,.09,2.99-1.21,2.99-2.83v-4.65c0-.41,.1-.82,.3-1.18l8.83-16.1c.78-1.42,.22-3.21-1.26-3.92Z"/><path class="cls-1" d="M170.19,25.68c0-8.42-6.37-11.48-10.65-11.48h-13.61c-1.57,0-2.83,1.27-2.83,2.83v23.18c0,1.37,.93,2.63,2.27,2.89,1.81,.35,3.4-1.03,3.4-2.78v-3.01c0-.58,.47-1.04,1.04-1.04h7.84c.32,0,.63,.15,.82,.41l4.14,5.37c.56,.73,1.4,1.11,2.25,1.11,.74,0,1.48-.29,2.06-.88,.98-1.02,.98-2.65,.11-3.78l-1.64-2.13c-.38-.5-.23-1.2,.3-1.53,.45-.27,.89-.59,1.31-.97,2.12-1.9,3.2-4.65,3.2-8.18Zm-21.42-4.77c0-.58,.47-1.04,1.04-1.04h9.7c1.18,.03,5.01,.52,5.01,5.81,0,1.83-.43,3.16-1.28,3.93-1.29,1.18-3.37,1.01-3.37,1.01-.11-.01-.21-.02-.32-.02h-9.74c-.58,0-1.04-.47-1.04-1.04v-8.65Z"/><path class="cls-1" d="M123.91,14.21h-9.13c-1.57,0-2.83,1.27-2.83,2.83v23.28c0,1.57,1.27,2.83,2.83,2.83h9.15c5.23,0,15.11-3.02,15.11-14.46s-9.89-14.48-15.13-14.49Zm.01,23.28h-5.27c-.58,0-1.04-.47-1.04-1.04v-15.53c0-.58,.47-1.04,1.04-1.04h5.24c.97,.01,9.48,.35,9.48,8.82s-8.49,8.78-9.44,8.79Z"/><path class="cls-1" d="M36.79,43.16c14.15,0,22.6-8.06,22.6-21.56C59.39,5.67,47.7,0,36.77,0h-10.7c-1.57,0-2.83,1.27-2.83,2.83V20.74c0,.69-.65,1.17-1.32,1-.89-.24-1.81-.36-2.76-.36-4.08,0-7.64,2.25-9.51,5.58-.34,.6-.99,.93-1.69,.9-.62-.03-1.26,.03-1.91,.17C2.45,28.84-.18,32.21,0,35.89c.2,4.04,3.55,7.26,7.64,7.26h29.13Zm0-5.67h-6.85c-.58,0-1.04-.47-1.04-1.04V6.71c0-.58,.47-1.04,1.04-1.04h6.83c5.1,0,16.96,1.55,16.96,15.93s-10.61,15.89-16.94,15.89Z"/><path class="cls-1" d="M198.13,19.88c1.75,0,3.13-1.58,2.78-3.4-.26-1.35-1.51-2.27-2.89-2.27h-20.14c-1.57,0-2.83,1.27-2.83,2.83v23.28c0,1.57,1.27,2.83,2.83,2.83h20.14c1.37,0,2.63-.93,2.89-2.27,.35-1.81-1.03-3.4-2.78-3.4h-16.37c-.58,0-1.04-.47-1.04-1.04v-3.89c0-.58,.47-1.04,1.04-1.04h9.42c1.37,0,2.63-.93,2.89-2.27,.35-1.81-1.03-3.4-2.78-3.4h-9.52c-.58,0-1.04-.47-1.04-1.04v-3.89c0-.58,.47-1.04,1.04-1.04h16.37Z"/><path class="cls-1" d="M266.59,14.24c-1.02-.16-2.04,.3-2.7,1.09l-10.7,12.75c-.42,.5-1.18,.5-1.59,0l-10.7-12.75c-.66-.79-1.68-1.26-2.7-1.09-1.41,.23-2.4,1.43-2.4,2.8v23.18c0,1.37,.93,2.63,2.27,2.89,1.81,.35,3.4-1.03,3.4-2.78v-12.64c0-.97,1.21-1.41,1.84-.67l6.92,8.25c.54,.64,1.33,1.01,2.17,1.01s1.63-.37,2.17-1.01l6.92-8.25c.62-.74,1.84-.3,1.84,.67v12.53c0,1.37,.93,2.63,2.27,2.89,1.81,.35,3.4-1.03,3.4-2.78V17.04c0-1.37-.99-2.58-2.4-2.8Z"/><path class="cls-1" d="M287.31,23.41c-2.67-.91-3.8-2.3-3.74-3.27,.04-.64,.6-1.16,1.41-1.32,2.15-.43,2.96,.8,3.2,1.35,.58,1.43,2.21,2.13,3.65,1.57,1.46-.57,2.18-2.21,1.62-3.67-.84-2.16-3.91-5.94-9.57-4.82-3.36,.66-5.75,3.28-5.97,6.5-.2,3.04,1.68,7.01,7.57,9.02,3.83,1.3,4.82,4.02,4.5,5.94-.3,1.81-1.81,3.75-5.18,3.76h-.05c-2.55,0-4.33-.86-5.16-2.48-.71-1.4-.5-2.94-.08-3.51,.93-1.26,.66-3.03-.6-3.96-1.26-.93-3.03-.66-3.96,.6-1.82,2.46-1.98,6.35-.41,9.45,1.8,3.55,5.52,5.59,10.22,5.59,.02,0,.05,0,.07,0,6.47-.03,10.06-4.3,10.75-8.52,.73-4.44-1.55-9.94-8.27-12.23Z"/><path class="cls-1" d="M220.87,15.88c-.56-1.24-1.93-1.94-3.32-1.58-.86,.22-1.54,.89-1.91,1.71l-10.35,23c-.63,1.4-.15,3.13,1.22,3.83,1.46,.75,3.22,.12,3.88-1.36l.75-1.67c.17-.37,.54-.61,.95-.61h12.38c.41,0,.78,.24,.95,.61l.75,1.67c.47,1.05,1.51,1.67,2.59,1.67,.51,0,1.03-.14,1.51-.44,1.22-.76,1.61-2.37,1.02-3.68l-10.42-23.16Zm-6.24,16.19l2.7-6.01c.37-.82,1.53-.82,1.9,0l2.7,6.01c.31,.69-.19,1.47-.95,1.47h-5.41c-.76,0-1.26-.78-.95-1.47Z"/></g></g></svg>