<?xml version="1.0" encoding="UTF-8"?><svg id="Layer_2" xmlns="http://www.w3.org/2000/svg" viewBox="0 0 286.46 28.96"><defs><style>.cls-1{fill:#fff;}</style></defs><g id="Layer_1-2"><g><path class="cls-1" d="M64.23,1.68c-.56-1.24-1.93-1.94-3.32-1.58-.86,.22-1.54,.89-1.91,1.71l-10.35,23.01c-.63,1.4-.15,3.13,1.22,3.83,1.46,.75,3.22,.12,3.88-1.36l.77-1.7c.16-.35,.51-.58,.9-.58h12.45c.39,0,.74,.23,.9,.58l.77,1.7c.47,1.05,1.51,1.67,2.59,1.67,.51,0,1.03-.14,1.5-.43,1.23-.76,1.61-2.38,1.02-3.69L64.23,1.68Zm-6.27,16.26l2.79-6.19c.35-.78,1.45-.78,1.8,0l2.79,6.19c.29,.65-.18,1.39-.9,1.39h-5.57c-.72,0-1.19-.74-.9-1.39Z"/><path class="cls-1" d="M96.9,.28c-1.38-.67-3.05-.01-3.79,1.33l-6.05,11.03c-.37,.68-1.36,.68-1.73,0l-6.05-11.03c-.74-1.35-2.41-2-3.79-1.33-1.47,.71-2.04,2.5-1.26,3.92l8.7,15.85c.28,.52,.43,1.1,.43,1.69v4.27c0,1.37,.93,2.63,2.27,2.89,1.81,.35,3.4-1.03,3.4-2.78v-4.37c0-.59,.15-1.17,.43-1.69l8.7-15.85c.78-1.42,.22-3.21-1.26-3.92Z"/><path class="cls-1" d="M211.32,1.68c-.56-1.24-1.93-1.94-3.32-1.58-.86,.22-1.54,.89-1.91,1.71l-10.37,23.05c-.56,1.25-.24,2.78,.88,3.57,1.51,1.06,3.52,.46,4.24-1.14l.77-1.7c.16-.35,.51-.58,.9-.58h12.45c.39,0,.74,.23,.9,.58l.77,1.7c.47,1.05,1.5,1.67,2.59,1.67,.52,0,1.05-.14,1.54-.45,1.2-.77,1.58-2.36,.99-3.66L211.32,1.68Zm-6.27,16.26l2.79-6.19c.35-.78,1.45-.78,1.8,0l2.79,6.19c.29,.65-.18,1.39-.9,1.39h-5.57c-.72,0-1.19-.74-.9-1.39Z"/><path class="cls-1" d="M160.65,11.48c0-4.56-1.91-8.13-5.37-10.04C152.75,.04,150.27,0,149.99,0h-13.61c-1.57,0-2.83,1.27-2.83,2.83V26.01c0,1.37,.93,2.63,2.27,2.89,1.81,.35,3.4-1.03,3.4-2.78v-3.06c0-.54,.44-.99,.99-.99h7.92c.31,0,.59,.14,.78,.38l4.15,5.39c.56,.73,1.4,1.11,2.25,1.11,.74,0,1.48-.29,2.06-.88,.98-1.02,.98-2.65,.11-3.78l-1.68-2.18c-.36-.47-.22-1.14,.29-1.45,.47-.28,.92-.61,1.36-1,2.12-1.9,3.2-4.65,3.2-8.18Zm-21.42-4.82c0-.54,.44-.99,.99-.99h9.76c1.18,.02,5.01,.52,5.01,5.81,0,1.83-.43,3.16-1.28,3.93-1.3,1.18-3.36,1.01-3.37,1.01-.11-.01-.21-.02-.32-.02h-9.8c-.54,0-.99-.44-.99-.99V6.66Z"/><path class="cls-1" d="M114.36,0h-9.13c-1.57,0-2.83,1.27-2.83,2.83V26.12c0,1.57,1.27,2.83,2.83,2.83h9.15c5.23,0,15.11-3.02,15.11-14.46S119.6,.01,114.36,0Zm.01,23.28h-5.32c-.54,0-.99-.44-.99-.99V6.66c0-.54,.44-.99,.99-.99h5.29c.97,.01,9.48,.35,9.48,8.82s-8.49,8.78-9.44,8.79Z"/><path class="cls-1" d="M6.84,15.27C2.77,15.27-.48,18.84,.06,23.01c.44,3.45,3.55,5.94,7.02,5.94H25.97s.08,0,.11,0h6.44c5.23,0,15.11-3.02,15.11-14.46S37.75,.01,32.52,0h-9.13c-1.57,0-2.83,1.27-2.83,2.83v6.53c0,.68-.66,1.13-1.31,.93-.9-.28-1.85-.43-2.83-.43-3.48,0-6.52,1.88-8.18,4.66,0,0-.3,.41-.59,.57s-.79,.16-.79,.16Zm25.69,8.02h-5.32c-.54,0-.99-.44-.99-.99V6.66c0-.54,.44-.99,.99-.99h5.3c.97,0,9.46,.27,9.46,8.82s-8.49,8.78-9.44,8.79Z"/><path class="cls-1" d="M188.58,5.67c1.75,0,3.13-1.58,2.78-3.4-.26-1.35-1.52-2.27-2.89-2.27h-20.14c-1.57,0-2.83,1.27-2.83,2.83V26.12c0,1.57,1.27,2.83,2.83,2.83h20.14c1.37,0,2.63-.93,2.89-2.27,.35-1.81-1.03-3.4-2.78-3.4h-16.42c-.54,0-.99-.44-.99-.99v-4c0-.54,.44-.99,.99-.99h9.47c1.37,0,2.63-.93,2.89-2.27,.35-1.81-1.03-3.4-2.78-3.4h-9.58c-.54,0-.99-.44-.99-.99v-4c0-.54,.44-.99,.99-.99h16.42Z"/><path class="cls-1" d="M257.04,.04c-1.02-.16-2.04,.3-2.7,1.09l-10.74,12.8c-.39,.47-1.12,.47-1.51,0l-10.75-12.8c-.66-.79-1.68-1.25-2.7-1.09-1.41,.23-2.4,1.43-2.4,2.8V26.01c0,1.37,.93,2.63,2.27,2.89,1.81,.35,3.4-1.03,3.4-2.78V13.33c0-.92,1.15-1.34,1.74-.63l7.02,8.36c.54,.64,1.33,1.01,2.17,1.01s1.63-.37,2.17-1.01l7.02-8.36c.59-.71,1.74-.29,1.74,.63v12.68c0,1.37,.93,2.63,2.27,2.89,1.81,.35,3.4-1.03,3.4-2.78V2.84c0-1.37-.99-2.58-2.4-2.8Z"/><path class="cls-1" d="M278.61,9.5c-2.33-.79-3.31-1.96-3.26-2.75,.03-.47,.46-.86,1.1-.99,1.73-.34,2.41,.54,2.67,1.1,.58,1.42,2.21,2.12,3.65,1.57,1.46-.57,2.18-2.21,1.62-3.67-.79-2.04-3.69-5.62-9.03-4.56-3.18,.63-5.45,3.11-5.66,6.17-.19,2.87,1.57,6.62,7.09,8.5,3.36,1.15,4.24,3.51,3.96,5.18-.26,1.56-1.57,3.23-4.51,3.25-1.55-.03-3.65-.36-4.55-2.14-.6-1.18-.44-2.5-.1-2.97,.93-1.26,.66-3.04-.6-3.96-1.26-.93-3.03-.66-3.96,.6-1.71,2.32-1.88,5.98-.4,8.9,1.69,3.33,5.18,5.24,9.57,5.24h.07c6.06-.03,9.43-4.04,10.08-8,.68-4.16-1.45-9.32-7.73-11.46Z"/></g></g></svg>