
<svg 
 xmlns="http://www.w3.org/2000/svg"
 xmlns:xlink="http://www.w3.org/1999/xlink"
 width="94px" height="94px"
 version="1.1" xml:space="preserve"
 >

<path fill-rule="evenodd"  stroke="rgb(0, 0, 0)" stroke-width="0px" stroke-linecap="butt" stroke-linejoin="miter" fill="#9e0000"  opacity="0"
 d="M-0.000,-0.000 L94.000,-0.000 L94.000,94.000 L-0.000,94.000 L-0.000,-0.000 Z"/>
<path fill-rule="evenodd"  stroke="rgb(0, 0, 0)" stroke-width="0px" stroke-linecap="butt" stroke-linejoin="miter" fill="#9e0000"
 d="M75.491,26.201 L55.474,46.218 L75.126,65.870 C77.664,68.408 77.664,72.524 75.126,75.062 L75.093,75.095 C72.555,77.633 68.439,77.633 65.901,75.095 L46.249,55.443 L26.701,74.991 C24.163,77.530 20.047,77.530 17.509,74.991 C14.970,72.453 14.970,68.337 17.509,65.799 L37.057,46.251 L16.905,26.099 C14.367,23.561 14.367,19.445 16.905,16.907 L16.938,16.874 C19.476,14.336 23.592,14.336 26.130,16.874 L46.282,37.026 L66.299,17.009 C68.837,14.470 72.953,14.470 75.491,17.009 C78.030,19.547 78.030,23.663 75.491,26.201 Z"/>
</svg>


