
<svg 
 xmlns="http://www.w3.org/2000/svg"
 xmlns:xlink="http://www.w3.org/1999/xlink"
 width="94px" height="94px"
 version="1.1" xml:space="preserve"
 >

<path fill-rule="evenodd"  stroke="rgb(0, 0, 0)" stroke-width="0px" stroke-linecap="butt" stroke-linejoin="miter" fill="#4a4a4a" opacity="0"
 d="M-0.000,-0.000 L94.000,-0.000 L94.000,94.000 L-0.000,94.000 L-0.000,-0.000 Z"/>
<path fill-rule="evenodd"  stroke="rgb(0, 0, 0)" stroke-width="0px" stroke-linecap="butt" stroke-linejoin="miter" fill="#4a4a4a"
 d="M74.810,32.000 C72.714,43.334 57.888,49.653 58.062,56.000 C58.226,61.962 40.922,65.007 39.792,56.000 C40.123,48.294 57.932,38.957 58.062,30.500 C57.932,27.745 59.975,20.866 47.405,19.1000 C34.835,19.134 36.166,28.457 30.657,28.1000 C25.149,29.543 20.110,25.101 20.000,19.1000 C19.890,14.899 29.290,4.487 48.927,4.1000 C68.565,5.513 76.320,11.248 74.810,32.000 ZM48.492,69.000 C53.187,69.000 56.993,72.806 56.993,77.500 C56.993,82.194 53.187,86.000 48.492,86.000 C43.797,86.000 39.991,82.194 39.991,77.500 C39.991,72.806 43.797,69.000 48.492,69.000 Z"/>
</svg>



